<?xml version="1.0" encoding="UTF-8" standalone="no"?>
<svg width="48px" height="55px" viewBox="0 0 48 55" version="1.1" xmlns="http://www.w3.org/2000/svg" xmlns:xlink="http://www.w3.org/1999/xlink">
    <!-- Generator: Sketch 39 (31667) - http://www.bohemiancoding.com/sketch -->
    <title>icon-mail</title>
    <desc>Created with Sketch.</desc>
    <defs></defs>
    <g id="Page-1" stroke="none" stroke-width="1" fill="none" fill-rule="evenodd">
        <g id="icon-mail" fill="#FFFFFF">
            <g id="news-logo">
                <g id="Imported-Layers-Copy-16">
                    <path d="M45.0405941,15.2921222 L23.9361536,3.181005 L2.85968246,15.3394414 L2.88700128,39.6083468 L23.9907913,51.719464 L45.0679129,39.5610276 L45.0405941,15.2921222 L45.0405941,15.2921222 Z M5.3853726,38.1673805 L5.36130602,16.775222 L23.9394059,6.05775186 L42.5422228,16.7330885 L42.5662894,38.1258952 L23.9875391,42.0942509 L5.3853726,38.1673805 Z" id="Fill-1"></path>
                    <path d="M47.8020487,13.6991821 L23.9325318,0.0012819504 L0.0946485799,13.7527009 L0.125546679,41.2012869 L23.994328,54.8991871 L47.8329468,41.1477681 L47.8020487,13.6991821 L47.8020487,13.6991821 Z M23.9932321,53.9725041 L0.930379512,40.7372868 L0.900541911,14.2154191 L23.9335569,0.927964923 L46.9972159,14.1631822 L47.0270535,40.6858536 L23.9932321,53.9725041 L23.9932321,53.9725041 Z" id="Fill-1-Copy"></path>
                </g>
            </g>
            <g id="envelope" transform="translate(13.000000, 18.000000)">
                <g id="Capa_1">
                    <g id="Group">
                        <path d="M2.11002344,5.26152109 C2.38811719,5.4541737 3.22639453,6.02635236 4.62489844,6.97776179 C6.02344531,7.92917122 7.09482812,8.66173201 7.83908984,9.17548635 C7.92085937,9.23180149 8.09458203,9.35421836 8.36034375,9.54290571 C8.62614844,9.7317196 8.84700781,9.88429777 9.02275,10.0006824 C9.19862109,10.1170248 9.41123047,10.2475409 9.66079297,10.3920199 C9.91026953,10.5363722 10.1454375,10.6449529 10.3662539,10.7168337 C10.5871133,10.7893052 10.7915586,10.8252035 10.9796328,10.8252035 L10.9919648,10.8252035 L11.0043398,10.8252035 C11.1924141,10.8252035 11.3969453,10.789263 11.6178047,10.7168337 C11.8385352,10.6449529 12.073918,10.5362457 12.3231797,10.3920199 C12.5725703,10.2473722 12.7851797,10.1169826 12.9610508,10.0006824 C13.1369219,9.88429777 13.3576094,9.7317196 13.6235,9.54290571 C13.8892187,9.35404963 14.0631562,9.23180149 14.1449258,9.17548635 C14.8972227,8.66173201 16.8111797,7.35695037 19.8861953,5.26126799 C20.4832031,4.8519603 20.9819844,4.35807444 21.382668,3.77994789 C21.7836523,3.20207444 21.9839297,2.5958536 21.9839297,1.96162283 C21.9839297,1.43162779 21.789582,0.977942928 21.4010586,0.600610422 C21.0125781,0.223193548 20.5524687,0.0345905707 20.0210312,0.0345905707 L1.96276953,0.0345905707 C1.3330625,0.0345905707 0.848460937,0.243315136 0.509050781,0.660764268 C0.169683594,1.07829777 0,1.60019355 0,2.22640943 C0,2.73223325 0.224984375,3.28036725 0.674738281,3.87047395 C1.12444922,4.46062283 1.60303516,4.92434739 2.11002344,5.26152109 L2.11002344,5.26152109 Z" id="Shape"></path>
                        <path d="M20.757,6.55006203 C18.0747187,8.33236228 16.038,9.71750372 14.647832,10.7051911 C14.1816641,11.0422804 13.8034961,11.3054218 13.5130703,11.4939826 C13.2226445,11.68267 12.8363984,11.8753648 12.3537734,12.0719826 C11.8713203,12.2688958 11.4216953,12.3670571 11.0045117,12.3670571 L10.9920078,12.3670571 L10.9796758,12.3670571 C10.5625781,12.3670571 10.1126953,12.2688958 9.63024219,12.0719826 C9.14778906,11.8753648 8.76128516,11.68267 8.47094531,11.4939826 C8.18069141,11.3054218 7.80239453,11.0422804 7.33626953,10.7051911 C6.23210156,9.91036725 4.19976562,8.52514144 1.23917578,6.55006203 C0.772878906,6.24515881 0.359863281,5.89566749 0,5.50230521 L0,15.0646998 C0,15.5949479 0.192113281,16.0483797 0.576554687,16.4257543 C0.960910156,16.8032556 1.42308203,16.9919429 1.96289844,16.9919429 L20.0212031,16.9919429 C20.5608906,16.9919429 21.0230195,16.8032556 21.407418,16.4257543 C21.7919453,16.0482531 21.9839727,15.5949901 21.9839727,15.0646998 L21.9839727,5.50230521 C21.6322305,5.88752605 21.2234258,6.23701737 20.757,6.55006203 L20.757,6.55006203 Z" id="Shape"></path>
                    </g>
                </g>
            </g>
        </g>
    </g>
</svg>