<?xml version="1.0" encoding="UTF-8" standalone="no"?>
<svg width="207px" height="206px" viewBox="0 0 207 206" version="1.1" xmlns="http://www.w3.org/2000/svg" xmlns:xlink="http://www.w3.org/1999/xlink">
    <!-- Generator: Sketch 39 (31667) - http://www.bohemiancoding.com/sketch -->
    <title>icon-hiring-artist</title>
    <desc>Created with Sketch.</desc>
    <defs></defs>
    <g id="Page-1" stroke="none" stroke-width="1" fill="none" fill-rule="evenodd">
        <g id="icon-hiring-artist" fill="#02131C">
            <g id="Page-1">
                <g id="Group-2">
                    <g id="Group-3">
                        <path d="M103.234458,0.00492610837 L206.224606,102.995074 L103.224606,205.995074 L0.234458036,103.004926 L103.234458,0.00492610837 L103.234458,0.00492610837 Z M103.234284,3.63391123 L202.595621,102.995247 L103.224779,202.366089 L3.86344316,103.004753 L103.234284,3.63391123 L103.234284,3.63391123 Z" id="Combined-Shape"></path>
                    </g>
                    <g id="noun_91760_cc" transform="translate(9.000000, 8.000000)">
                        <path d="M94.5,0.969516728 L188.734758,95.2042751 L94.5,189.439033 L0.265241636,95.2042751 L94.5,0.969516728 L94.5,0.969516728 Z M94,11.5613998 L177.4386,95 L123.439216,137.999384 L65.6088003,138.0474 L10.5613998,95 L94,11.5613998 L94,11.5613998 Z" id="Combined-Shape"></path>
                        <g id="Group" transform="translate(50.000000, 38.000000)">
                            <polygon id="Shape" points="77.234589 103.713389 71.9794521 114.5745 28.2401507 114.361111 35.1934932 80.1268889 23.4946027 56.7346111 16.4813836 31.5598333 14.4315616 30.4558333 13.6200411 29.0656111 18.1948767 24.5435556 17.0495753 29.2202222 19.6268219 34.5204444 19.9211096 34.4054444 18.2203562 28.6311667 19.4713973 23.4127222 22.6588767 20.2872778 20.5147808 20.8226667 19.6102603 20.2936667 18.7031918 21.597 16.6622877 22.1157778 15.8800685 20.8673889 19.7261918 17.2640556 24.3851096 20.792 22.3709589 28.9135556 34.9285068 53.2411667 44.1648082 68.5745 57.4345068 80.3939444 74.3146438 81.9911667 87.2671233 92.2133889"></polygon>
                            <path d="M19.5147123,15.4981667 L23.0780137,11.1498889 C23.1226027,11.1958889 23.1506301,11.2559444 23.201589,11.2968333 L26.1113425,13.6211111 L22.6333973,17.8646111 L19.5147123,15.4981667 L19.5147123,15.4981667 L19.5147123,15.4981667 Z" id="Shape"></path>
                            <path d="M12.2072055,29.1729444 L9.63123288,27.5603889 L1.17460274,37.881 C0.501945205,38.7217778 0.639534247,39.9612222 1.47780822,40.6358889 C2.31608219,41.3105556 3.55183562,41.1725556 4.22449315,40.3317778 L12.6900411,30.0009444 L12.2072055,29.1729444 L12.2072055,29.1729444 L12.2072055,29.1729444 Z" id="Shape"></path>
                            <path d="M26.7865479,12.9349444 C26.8922877,13.0192778 27.0196849,13.0525 27.1458082,13.0601667 C27.1687397,13.0614444 27.1916712,13.0665556 27.2146027,13.0652778 C27.2732055,13.0627222 27.3305342,13.0461111 27.386589,13.0269444 C27.4133425,13.018 27.4426438,13.0141667 27.4681233,13.0013889 C27.5483836,12.9617778 27.622274,12.9068333 27.6808767,12.8327222 C27.8719726,12.5912222 27.8503151,12.259 27.6592192,12.0302778 C27.6324658,11.9983333 27.6133562,11.9612778 27.5789589,11.9344444 L24.5889452,9.54627778 C24.5749315,9.53605556 24.5583699,9.5335 24.5443562,9.52327778 C24.4475342,9.45811111 24.3405205,9.42616667 24.2296849,9.41977778 C24.2169452,9.4185 24.2067534,9.407 24.1940137,9.407 C24.1825479,9.407 24.1723562,9.41338889 24.1621644,9.41466667 C24.1035616,9.41722222 24.0462329,9.43383333 23.9901781,9.453 C23.9634247,9.46194444 23.9341233,9.46577778 23.9086438,9.47855556 C23.8283836,9.51816667 23.7544932,9.57311111 23.6958904,9.64722222 C23.4780411,9.92194444 23.5239041,10.3257222 23.7978082,10.5455 L26.7865479,12.9349444 L26.7865479,12.9349444 L26.7865479,12.9349444 Z" id="Shape"></path>
                            <polygon id="Shape" points="9.40956164 23.6848889 8.84264384 25.5593889 12.4072192 27.7916667 13.718137 26.5892778"></polygon>
                            <polygon id="Shape" points="10.7268493 20.6859444 9.78538356 22.6511667 14.5844384 25.9759444 15.9883562 24.7620556"></polygon>
                            <polygon id="Shape" points="15.5169863 16.0156667 13.7550822 17.4621111 16.0253014 19.4286111 17.6661781 17.8901667"></polygon>
                            <polygon id="Shape" points="16.2253151 23.2095556 14.6596027 20.7089444 15.3144247 20.0943333 12.9397397 18.0920556 11.2173288 19.8106667 16.7527397 24.1448889 18.2827808 22.6958889"></polygon>
                            <path d="M34.7425068,0.649111111 L34.5068219,0.921277778 L30.1345479,6.23683333 C30.2593973,6.47322222 30.2479315,6.76455556 30.0695753,6.98433333 C29.9498219,7.13127778 29.7829315,7.21561111 29.6083973,7.2335 C29.433863,7.25138889 29.2529589,7.20283333 29.1064521,7.08272222 C28.8134384,6.8425 28.7688493,6.40933333 29.0083562,6.11544444 C29.1281096,5.96977778 29.293726,5.88544444 29.4669863,5.86755556 C29.5141233,5.86244444 29.5587123,5.89438889 29.6058493,5.8995 L34.1424658,0.383333333 L34.2482055,0.245333333 C34.2482055,0.245333333 31.4556575,2.53766667 28.5484521,2.83538889 C28.4274247,2.84816667 28.3063973,2.85711111 28.1840959,2.86222222 C28.1840959,2.86222222 27.9636986,3.71322222 26.7674384,6.31605556 C26.2833288,7.36894444 25.6565342,8.23144444 25.1889863,8.80133333 L28.1751781,11.1856667 C28.2006575,11.2061111 28.2121233,11.2367778 28.2350548,11.2585 C28.6975068,10.6860556 29.4071096,9.90533333 30.3281918,9.22555556 C32.6289863,7.52483333 33.4150274,7.13638889 33.4150274,7.13638889 C32.9270959,4.12977778 34.7425068,0.649111111 34.7425068,0.649111111 L34.7425068,0.649111111 L34.7425068,0.649111111 Z" id="Shape"></path>
                            <path d="M52.1691781,56.2452222 C55.0853014,47.9882222 61.473,43.1722778 69.1945479,45.8556111 C77.839726,48.8596667 78.4792603,57.0502222 75.561863,65.3072222 C72.6457397,73.5642222 66.1892466,79.6362222 59.0448082,77.1535 C52.1309589,74.7512778 49.2530548,64.5022222 52.1691781,56.2452222 L52.1691781,56.2452222 L52.1691781,56.2452222 Z" id="Shape"></path>
                        </g>
                    </g>
                </g>
            </g>
        </g>
    </g>
</svg>