<?xml version="1.0" encoding="UTF-8" standalone="no"?>
<svg width="207px" height="206px" viewBox="0 0 207 206" version="1.1" xmlns="http://www.w3.org/2000/svg" xmlns:xlink="http://www.w3.org/1999/xlink">
    <!-- Generator: Sketch 39 (31667) - http://www.bohemiancoding.com/sketch -->
    <title>icon-hiring-3d</title>
    <desc>Created with Sketch.</desc>
    <defs></defs>
    <g id="Page-1" stroke="none" stroke-width="1" fill="none" fill-rule="evenodd">
        <g id="icon-hiring-3d" fill="#02131C">
            <g id="icon-hiring-artist-copy">
                <g id="Page-1">
                    <g id="icon-hiring-artist">
                        <g id="Page-1">
                            <g id="Group-2">
                                <g id="Group-3">
                                    <path d="M103.234458,0.00492610837 L206.224606,102.995074 L103.224606,205.995074 L0.234458036,103.004926 L103.234458,0.00492610837 L103.234458,0.00492610837 L103.234458,0.00492610837 Z M103.234284,3.63391123 L202.595621,102.995247 L103.224779,202.366089 L3.86344316,103.004753 L103.234284,3.63391123 L103.234284,3.63391123 L103.234284,3.63391123 Z" id="Combined-Shape"></path>
                                </g>
                                <g id="noun_91760_cc" transform="translate(9.000000, 9.000000)">
                                    <path d="M94.2347584,0 L188.469516,94.2347584 L94.2347584,188.469516 L0,94.2347584 L94.2347584,0 L94.2347584,0 L94.2347584,0 Z M93.7347584,10.5918831 L177.173358,94.0304833 L123.173974,137.029867 L65.3435587,137.077883 L10.2961582,94.0304833 L93.7347584,10.5918831 L93.7347584,10.5918831 L93.7347584,10.5918831 Z" id="Combined-Shape"></path>
                                </g>
                            </g>
                        </g>
                    </g>
                </g>
            </g>
            <g id="noun_370356_cc" transform="translate(68.000000, 67.000000)">
                <g id="Group">
                    <path d="M71.8668,22.3053478 C71.8668,21.58 71.577,20.8961522 71.0784,20.3945435 C70.911,20.2267391 70.7238,20.080587 70.515,19.9596957 C70.5132,19.9578913 70.5114,19.9578913 70.5096,19.9578913 L37.3482,0.768652174 C37.3176,0.750608696 37.2834,0.745195652 37.251,0.728956522 C37.1034,0.651369565 36.9504,0.588217391 36.7866,0.5395 C36.7362,0.52326087 36.6858,0.503413043 36.6354,0.492586957 C36.4302,0.442065217 36.2196,0.407782609 35.9982,0.407782609 C35.7768,0.407782609 35.5662,0.442065217 35.361,0.492586957 C35.3106,0.505217391 35.2602,0.525065217 35.2098,0.5395 C35.046,0.588217391 34.893,0.653173913 34.7454,0.728956522 C34.713,0.747 34.6806,0.752413043 34.6482,0.768652174 L1.485,19.9615 C0.6498,20.4450652 0.135,21.3382174 0.135,22.3053478 L0.135,60.6928478 C0.135,61.6599783 0.6498,62.5531304 1.485,63.0366957 L34.6518,82.2331522 C35.0694,82.4749348 35.5356,82.5958261 36.0018,82.5958261 C36.468,82.5958261 36.9342,82.4749348 37.3518,82.2331522 L70.515,63.0366957 C71.3502,62.5531304 71.865,61.6599783 71.865,60.6928478 L71.865,22.3197826 C71.865,22.3143696 71.8668,22.3107609 71.8668,22.3053478 L71.8668,22.3053478 Z M25.3872,47.642 C24.642,46.3446739 22.9896,45.904413 21.699,46.651413 L5.5368,56.0069565 L5.5368,26.9912391 L33.3036,43.0625652 L33.3036,75.2016087 L8.2368,60.6928478 L24.399,51.3391087 C25.6896,50.5921087 26.1324,48.9375217 25.3872,47.642 L25.3872,47.642 Z M33.2982,7.80019565 L33.2982,26.5058696 C33.2982,27.9998696 34.5078,29.2123913 35.9982,29.2123913 C37.4886,29.2123913 38.6982,27.9998696 38.6982,26.5058696 L38.6982,7.80019565 L63.765,22.3035435 L36.0018,38.3712609 L9.009,22.7510217 L8.235,22.3035435 L33.2982,7.80019565 L33.2982,7.80019565 Z M38.7018,43.0625652 L66.465,26.9948478 L66.465,56.0051522 L50.3028,46.651413 C49.0122,45.904413 47.3598,46.3446739 46.6146,47.642 C45.8694,48.9375217 46.3104,50.5921087 47.6028,51.3391087 L63.765,60.6928478 L38.7018,75.1998043 L38.7018,43.0625652 L38.7018,43.0625652 Z" id="Shape"></path>
                </g>
            </g>
        </g>
    </g>
</svg>