<?xml version="1.0" encoding="UTF-8" standalone="no"?>
<svg width="36px" height="40px" viewBox="0 0 36 40" version="1.1" xmlns="http://www.w3.org/2000/svg" xmlns:xlink="http://www.w3.org/1999/xlink">
    <!-- Generator: Sketch 39 (31667) - http://www.bohemiancoding.com/sketch -->
    <title>ig</title>
    <desc>Created with Sketch.</desc>
    <defs></defs>
    <g id="Page-1" stroke="none" stroke-width="1" fill="none" fill-rule="evenodd">
        <g id="ig" transform="translate(-2.000000, 0.000000)">
            <polygon id="Polygon-Copy-3" fill="#FFFFFF" points="20 0 37.3205081 10 37.3205081 30 20 40 2.67949192 30 2.67949192 10"></polygon>
            <g id="noun_578115_cc" transform="translate(10.000000, 10.000000)" fill="#02131C">
                <g id="Group">
                    <g transform="translate(0.299673, 0.000000)" id="Combined-Shape">
                        <path d="M19.0534979,15.8193521 C19.0534979,19.0798776 15.7929725,19.0798776 15.7929725,19.0798776 L3.41563786,19.0798776 C0.155112377,19.0798776 0.155112377,15.8193521 0.155112377,15.8193521 L0.155112377,3.43674158 C0.155112377,0.176216102 3.41563786,0.176216102 3.41563786,0.176216102 L15.7929725,0.176216102 C19.0534979,0.176216102 19.0534979,3.43674158 19.0534979,3.43674158 L19.0534979,15.8193521 Z M14.3420914,9.62540888 C14.3420914,12.2422708 12.221167,14.3631951 9.60430516,14.3631951 C6.98744328,14.3631951 4.86651894,12.2422708 4.86651894,9.62540888 C4.86651894,7.00854701 6.98744328,4.88762267 9.60430516,4.88762267 C12.221167,4.8928986 14.3420914,7.01382294 14.3420914,9.62540888 Z M16.0040097,4.86651894 C16.9061939,4.86651894 17.6395484,4.1331645 17.6395484,3.23098027 C17.6395484,2.32879603 16.9061939,1.5954416 16.0040097,1.5954416 C15.1018255,1.5954416 14.368471,2.32879603 14.368471,3.23098027 C14.368471,4.1331645 15.1018255,4.86651894 16.0040097,4.86651894 Z"></path>
                    </g>
                </g>
            </g>
        </g>
    </g>
</svg>