<?xml version="1.0" encoding="UTF-8" standalone="no"?>
<svg width="36px" height="40px" viewBox="0 0 36 40" version="1.1" xmlns="http://www.w3.org/2000/svg" xmlns:xlink="http://www.w3.org/1999/xlink">
    <!-- Generator: Sketch 39 (31667) - http://www.bohemiancoding.com/sketch -->
    <title>ks</title>
    <desc>Created with Sketch.</desc>
    <defs></defs>
    <g id="Page-1" stroke="none" stroke-width="1" fill="none" fill-rule="evenodd">
        <g id="ks" transform="translate(-2.000000, 0.000000)">
            <polygon id="Polygon-Copy" fill="#FFFFFF" points="20 0 37.3205081 10 37.3205081 30 20 40 2.67949192 30 2.67949192 10"></polygon>
            <g id="kickstarter" transform="translate(11.333333, 10.000000)" fill="#02131C">
                <g id="Layer_1">
                    <g id="XMLID_839_">
                        <path d="M6.38723958,6.65592448 L9.96914063,1.46621094 C10.6459635,0.489192708 11.5201823,0 12.5922526,0 C13.4665365,0 14.2229818,0.310677083 14.8624349,0.93046875 C15.5015625,1.55143229 15.8214193,2.29394531 15.8214193,3.15885417 C15.8214193,3.79830729 15.6521484,4.36223958 15.313737,4.8514974 L12.0843099,9.54700521 L16.0328776,14.553125 C16.4277344,15.0518229 16.6251953,15.6346354 16.6251953,16.3016276 C16.6251953,17.1857422 16.3149089,17.9445964 15.6944661,18.579362 C15.0738932,19.2141276 14.3217448,19.5313151 13.4380208,19.5313151 C12.4697266,19.5313151 11.7319661,19.2166667 11.2242188,18.586263 L6.38717448,12.5509115 L6.38717448,15.8789062 C6.38717448,16.8286458 6.22265625,17.5664714 5.8936849,18.093099 C5.29199219,19.0518229 4.41770833,19.53125 3.27070313,19.53125 C2.22734375,19.53125 1.41855469,19.1788411 0.845117188,18.4736979 C0.309244792,17.8248047 0.04140625,16.9646484 0.04140625,15.8929687 L0.04140625,3.55338542 C0.04140625,2.53860677 0.313997396,1.70175781 0.859244792,1.04375 C1.43268229,0.348046875 2.22220052,0 3.22838542,0 C4.18723958,0 4.98632813,0.348046875 5.62578125,1.04375 C5.98294271,1.42955729 6.20846354,1.81933594 6.30260417,2.2141276 C6.35891927,2.45839844 6.38717448,2.91419271 6.38717448,3.58203125 L6.38717448,6.65592448 L6.38723958,6.65592448 Z" id="XMLID_840_"></path>
                    </g>
                </g>
            </g>
        </g>
    </g>
</svg>