<?xml version="1.0" encoding="UTF-8" standalone="no"?>
<svg width="82px" height="94px" viewBox="0 0 82 94" version="1.1" xmlns="http://www.w3.org/2000/svg" xmlns:xlink="http://www.w3.org/1999/xlink">
    <!-- Generator: Sketch 39 (31667) - http://www.bohemiancoding.com/sketch -->
    <title>Group 9</title>
    <desc>Created with Sketch.</desc>
    <defs></defs>
    <g id="Page-1" stroke="none" stroke-width="1" fill="none" fill-rule="evenodd">
        <g id="Group-9">
            <g id="icon-mail-copy" fill="#FFFFFF">
                <g id="news-logo-copy-2">
                    <g id="Imported-Layers-Copy-16">
                        <path d="M76.9443483,26.1356271 L40.8909292,5.43662674 L4.88529087,26.2164998 L4.93196052,67.6942654 L40.9842685,88.3932657 L76.9910179,67.6133926 L76.9443483,26.1356271 L76.9443483,26.1356271 Z M9.20001152,65.2315231 L9.15889778,28.6703794 L40.8964851,10.3532486 L72.6762973,28.5983694 L72.717411,65.1606209 L40.9787125,71.9429015 L9.20001152,65.2315231 Z" id="Fill-1"></path>
                        <path d="M81.6618332,23.4131475 L40.8847418,0.00219096977 L0.161691324,23.5046162 L0.214475576,70.4167449 L40.9903103,93.8277015 L81.7146175,70.3252763 L81.6618332,23.4131475 L81.6618332,23.4131475 Z M40.9884381,92.2439161 L1.58939833,69.6237266 L1.53842576,24.2954435 L40.886493,1.58597641 L80.2869105,24.2061659 L80.337883,69.5358225 L40.9884381,92.2439161 L40.9884381,92.2439161 Z" id="Fill-1-Copy"></path>
                    </g>
                </g>
            </g>
            <g id="noun_547349_cc" transform="translate(34.000000, 24.000000)" stroke="#FFFFFF">
                <g id="Group">
                    <path d="M5.9794,6.3875 L3.675,8.1081 L2.3044,10.2956 L0.7294,15.0206 L0.3213,18.6662 L0.3213,28.4081 L2.0132,19.3662 L2.5676,16.1581 L3.3551,14.35 L3.15,20.5919 L3.15,26.7169 L3.3691,35.6566 L3.4132,48.7382 L5.4698,35.3941 L7.3948,27.8691 L8.1375,36.4 L9.5375,48.0816 L10.1941,36.5316 L10.9816,26.9941 L11.3316,23.4066 L10.675,14.35 L12.075,19.9066 L12.6875,26.6441 L13.3441,18.375 L13.3441,13.6934 L11.8566,9.8434 L10.4566,7.6559 L8.8053,6.0368 C8.8053,6.0368 9.5389,5.9927 10.2095,4.7537 C10.8801,3.5147 10.451,2.177 10.2606,1.5064 C10.0702,0.8358 9.3191,0.3934 8.6191,0.3647 C7.9191,0.336 6.3875,0.9625 6.0669,1.5316 C5.7463,2.1007 5.6,2.6831 5.7022,3.9081 C5.8044,5.1331 6.1838,5.4537 6.4022,5.7022 C6.6206,5.9507 5.9794,6.3875 5.9794,6.3875 L5.9794,6.3875 Z" id="Shape"></path>
                </g>
            </g>
        </g>
    </g>
</svg>