<?xml version="1.0" encoding="UTF-8" standalone="no"?>
<svg width="20px" height="21px" viewBox="0 0 20 21" version="1.1" xmlns="http://www.w3.org/2000/svg" xmlns:xlink="http://www.w3.org/1999/xlink">
    <!-- Generator: Sketch 39 (31667) - http://www.bohemiancoding.com/sketch -->
    <title>min</title>
    <desc>Created with Sketch.</desc>
    <defs></defs>
    <g id="Page-1" stroke="none" stroke-width="1" fill="none" fill-rule="evenodd">
        <g id="min" fill="#02131C">
            <path d="M7.5,8.925 L0.625,8.925 C0.2796875,8.925 0,9.21867188 0,9.58125 L0,13.51875 C0,13.8813281 0.2796875,14.175 0.625,14.175 L7.5,14.175 L12.5,14.175 L19.375,14.175 C19.7203125,14.175 20,13.8813281 20,13.51875 L20,9.58125 C20,9.21867188 19.7203125,8.925 19.375,8.925 L7.5,8.925 Z" id="Shape-Copy"></path>
            <path d="M7.5,7.875 L0.625,7.875 C0.2796875,7.875 0,8.16867187 0,8.53125 L0,12.46875 C0,12.8313281 0.2796875,13.125 0.625,13.125 L7.5,13.125 L12.5,13.125 L19.375,13.125 C19.7203125,13.125 20,12.8313281 20,12.46875 L20,8.53125 C20,8.16867187 19.7203125,7.875 19.375,7.875 L7.5,7.875 Z" id="Shape-Copy-2" opacity="0.00635494403" transform="translate(10.000000, 10.500000) rotate(90.000000) translate(-10.000000, -10.500000) "></path>
        </g>
    </g>
</svg>