<?xml version="1.0" encoding="UTF-8" standalone="no"?>
<svg width="48px" height="55px" viewBox="0 0 48 55" version="1.1" xmlns="http://www.w3.org/2000/svg" xmlns:xlink="http://www.w3.org/1999/xlink">
    <!-- Generator: Sketch 39 (31667) - http://www.bohemiancoding.com/sketch -->
    <title>news-logo</title>
    <desc>Created with Sketch.</desc>
    <defs></defs>
    <g id="Page-1" stroke="none" stroke-width="1" fill="none" fill-rule="evenodd">
        <g id="news-logo" fill="#FFFFFF">
            <g id="Imported-Layers-Copy-16">
                <path d="M45.0405941,15.2921222 L23.9361536,3.181005 L2.85968246,15.3394414 L2.88700128,39.6083468 L23.9907913,51.719464 L45.0679129,39.5610276 L45.0405941,15.2921222 L45.0405941,15.2921222 Z M5.3853726,38.1673805 L5.36130602,16.775222 L23.9394059,6.05775186 L42.5422228,16.7330885 L42.5662894,38.1258952 L23.9875391,42.0942509 L5.3853726,38.1673805 Z" id="Fill-1"></path>
                <path d="M47.8020487,13.6991821 L23.9325318,0.0012819504 L0.0946485799,13.7527009 L0.125546679,41.2012869 L23.994328,54.8991871 L47.8329468,41.1477681 L47.8020487,13.6991821 L47.8020487,13.6991821 Z M23.9932321,53.9725041 L0.930379512,40.7372868 L0.900541911,14.2154191 L23.9335569,0.927964923 L46.9972159,14.1631822 L47.0270535,40.6858536 L23.9932321,53.9725041 L23.9932321,53.9725041 Z" id="Fill-1-Copy"></path>
            </g>
            <g id="noun_241406_cc-copy-+-Shape-Copy-Copy-Copy" transform="translate(6.760563, 15.521472)">
                <g id="noun_241406_cc-copy">
                    <path d="M2.14820282,19.4160966 L0.0669258216,23.8556121 C-0.0452619718,24.0934639 0.0595755869,24.3763459 0.299038498,24.4879592 C0.362869484,24.5179793 0.431729577,24.5326045 0.500976526,24.5326045 L5.76877371,24.5326045 C5.95678498,24.5326045 6.12584038,24.4236853 6.20437183,24.254341 L8.84465352,18.5262692 C8.8728939,18.4639197 8.88759437,18.3957971 8.88759437,18.3280593 L8.88759437,7.16788344 C8.93363005,6.64291603 8.54368075,6.18145274 8.01717183,6.13526793 C7.49104977,6.08985286 7.0260507,6.47742044 6.98040188,7.00123322 C6.97459906,7.05703988 6.97459906,7.11207678 6.98040188,7.16788344 L6.59818967,11.5138746 C6.57768638,11.7447987 6.39431737,11.926459 6.16336526,11.9472421 L6.08676808,11.9541699 C5.82293333,11.9776471 5.59120751,11.7829012 5.56683568,11.5215721 L5.20783474,7.42382429 C5.19738967,7.31221099 5.22717746,7.20059768 5.29178216,7.10861292 L9.39282629,1.28162864 C9.50888263,1.11805742 9.50888263,0.899064417 9.39282629,0.735493194 L9.08875869,0.302895418 C8.93633803,0.0877511503 8.6392338,0.0350234854 8.42220845,0.185509011 C8.39977089,0.20205857 8.37733333,0.219762749 8.35837746,0.239391296 L3.40509296,5.16654141 C3.3656338,5.2057985 3.33391174,5.25236819 3.30953991,5.30240174 L0.779511737,10.7010219 C0.737344601,10.7891579 0.724191549,10.8888401 0.741986854,10.9846736 L2.1857277,19.13206 C2.2027493,19.2286632 2.18959624,19.3271909 2.14820282,19.4160966 L2.14820282,19.4160966 L2.14820282,19.4160966 Z" id="Shape"></path>
                    <path d="M32.670246,19.4160966 L34.7495887,23.8556121 C34.7797634,23.9175767 34.7944638,23.986469 34.7944638,24.0561311 C34.7944638,24.3197695 34.581307,24.5322196 34.3159249,24.5322196 L29.0481277,24.5322196 C28.861277,24.5322196 28.691061,24.4233004 28.6136901,24.2539561 L25.9737953,18.5258843 C25.9451681,18.4635348 25.9300808,18.3954122 25.9300808,18.3276745 L25.9300808,7.16788344 C25.9254385,7.11169191 25.9254385,7.05703988 25.9300808,7.00123322 C25.9761164,6.47742044 26.4403418,6.08985286 26.9672376,6.13526793 C27.4945202,6.18183762 27.8836958,6.64291603 27.8388207,7.16788344 L28.2198723,11.5138746 C28.2407624,11.7447987 28.4237446,11.926459 28.6558573,11.9472421 L28.7320676,11.9541699 C28.9951286,11.9776471 29.2276282,11.7829012 29.2504526,11.5215721 L29.6113878,7.42382429 C29.6206723,7.31221099 29.5908845,7.20059768 29.5262798,7.10861292 L25.424462,1.28162864 C25.3099531,1.11805742 25.3099531,0.899064417 25.424462,0.735493194 L25.7289164,0.302895418 C25.7451643,0.280572757 25.7625728,0.259019843 25.7834629,0.239391296 C25.9703136,0.0534974118 26.2732207,0.0534974118 26.4600714,0.239391296 L31.4133559,5.16692628 C31.4524282,5.20618338 31.4853108,5.25275307 31.5085221,5.30278662 L34.0397108,10.7014067 C34.0807174,10.7895428 34.0938704,10.889225 34.0768488,10.9850585 L32.6327211,19.13206 C32.6153127,19.2286632 32.6280789,19.3271909 32.670246,19.4160966 L32.670246,19.4160966 L32.670246,19.4160966 Z" id="Shape"></path>
                </g>
            </g>
            <g id="saturn11-copy-3" transform="translate(17.239437, 19.907975)">
                <g id="Group">
                    <path d="M3.48471127,7.33737423 C4.29807042,8.31242209 5.52677113,8.93474724 6.90055986,8.93474724 C8.27434859,8.93474724 9.5026162,8.31242209 10.3155423,7.33737423 C9.30902113,7.55185031 8.14182042,7.67373129 6.90055986,7.67373129 C5.6575669,7.67373129 4.49209859,7.55185031 3.48471127,7.33737423 L3.48471127,7.33737423 Z" id="Shape"></path>
                    <path d="M11.373169,2.64947853 C11.4493944,2.82734724 11.5152254,3.00995337 11.5693627,3.19772761 C12.0358099,3.37818037 12.3082289,3.58705767 12.3082289,3.81100859 C12.3082289,4.0711362 11.9474577,4.31102209 11.3328908,4.50827117 C11.3233627,2.08227975 9.34193662,0.118402454 6.90055986,0.118402454 C4.4583169,0.118402454 2.47775704,2.08227975 2.46822887,4.50870184 C1.85322887,4.31102209 1.49245775,4.07070552 1.49245775,3.81100859 C1.49245775,3.58748834 1.76530986,3.37774969 2.23132394,3.19772761 C2.28589437,3.00995337 2.35215845,2.82734724 2.4279507,2.64904785 C0.943288732,3.10168712 0,3.7748319 0,4.52679018 C0,4.62455337 0.0155915493,4.72059387 0.0463415493,4.81491166 C0.445225352,6.04233497 3.36214437,6.99412638 6.90055986,6.99412638 C10.4381092,6.99412638 13.3558944,6.04233497 13.7556444,4.81491166 C13.7855282,4.71973252 13.8015528,4.62455337 13.8015528,4.52679018 C13.8006866,3.7748319 12.857831,3.10211779 11.373169,2.64947853 L11.373169,2.64947853 Z" id="Shape"></path>
                </g>
            </g>
        </g>
    </g>
</svg>