<?xml version="1.0" encoding="UTF-8" standalone="no"?>
<svg width="20px" height="20px" viewBox="0 0 20 20" version="1.1" xmlns="http://www.w3.org/2000/svg" xmlns:xlink="http://www.w3.org/1999/xlink">
    <!-- Generator: Sketch 39 (31667) - http://www.bohemiancoding.com/sketch -->
    <title>plus</title>
    <desc>Created with Sketch.</desc>
    <defs></defs>
    <g id="Page-1" stroke="none" stroke-width="1" fill="none" fill-rule="evenodd">
        <path d="M12.5,7.5 L12.5,0.625 C12.5,0.2796875 12.2203125,0 11.875,0 L8.125,0 C7.7796875,0 7.5,0.2796875 7.5,0.625 L7.5,7.5 L0.625,7.5 C0.2796875,7.5 0,7.7796875 0,8.125 L0,11.875 C0,12.2203125 0.2796875,12.5 0.625,12.5 L7.5,12.5 L7.5,19.375 C7.5,19.7203125 7.7796875,20 8.125,20 L11.875,20 C12.2203125,20 12.5,19.7203125 12.5,19.375 L12.5,12.5 L19.375,12.5 C19.7203125,12.5 20,12.2203125 20,11.875 L20,8.125 C20,7.7796875 19.7203125,7.5 19.375,7.5 L12.5,7.5 Z" id="plus" fill="#02131C"></path>
    </g>
</svg>