<?xml version="1.0" encoding="UTF-8" standalone="no"?>
<svg width="36px" height="40px" viewBox="0 0 36 40" version="1.1" xmlns="http://www.w3.org/2000/svg" xmlns:xlink="http://www.w3.org/1999/xlink">
    <!-- Generator: Sketch 39 (31667) - http://www.bohemiancoding.com/sketch -->
    <title>rd</title>
    <desc>Created with Sketch.</desc>
    <defs></defs>
    <g id="Page-1" stroke="none" stroke-width="1" fill="none" fill-rule="evenodd">
        <g id="rd" transform="translate(-2.000000, 0.000000)">
            <polygon id="Polygon-Copy-4" fill="#FFFFFF" points="20 0 37.3205081 10 37.3205081 30 20 40 2.67949192 30 2.67949192 10"></polygon>
            <g id="reddit-big-logo" transform="translate(10.000000, 10.666667)" fill="#02131C">
                <g id="Capa_1">
                    <path d="M19.982,9.01014286 C19.982,7.63164286 18.8605,6.51014286 17.482,6.51014286 C16.7128571,6.51014286 16.0052857,6.85385714 15.5335,7.44328571 C14.2097857,6.84107143 12.7004286,6.47 11.1038571,6.3525 L12.4757143,2.01735714 L15.5396429,2.68121429 C15.7742857,3.59421429 16.604,4.27107143 17.5891429,4.27107143 C18.756,4.27107143 19.7053571,3.32178571 19.7053571,2.15492857 C19.7053571,0.988071429 18.756,0.0387142857 17.5891429,0.0387142857 C16.7462143,0.0387142857 16.0177857,0.5345 15.6777857,1.24942857 L12.1422857,0.483357143 C11.7822143,0.405357143 11.4212857,0.614285714 11.3100714,0.965928571 L9.61685714,6.31642857 C7.748,6.362 5.97485714,6.74878571 4.44857143,7.44321429 C3.97671429,6.85385714 3.26914286,6.51014286 2.5,6.51014286 C1.1215,6.51014286 0,7.63164286 0,9.01014286 C0,9.67964286 0.263071429,10.3082143 0.730142857,10.7750714 C0.451571429,11.3729286 0.3105,11.9947857 0.3105,12.6276429 C0.3105,14.3453571 1.33878571,15.9485 3.20607143,17.1418571 C5.02371429,18.3035714 7.43342857,18.9433571 9.991,18.9433571 C12.5487143,18.9433571 14.9582857,18.3035714 16.7759286,17.1418571 C18.6432143,15.9485 19.6715,14.3453571 19.6715,12.6276429 C19.6715,11.9948571 19.5304286,11.373 19.2518571,10.7750714 C19.7189286,10.3081429 19.982,9.67964286 19.982,9.01014286 L19.982,9.01014286 Z M1.09778571,9.86707143 C0.939785714,9.61064286 0.857142857,9.31792857 0.857142857,9.01014286 C0.857142857,8.10428571 1.59407143,7.36728571 2.5,7.36728571 C2.88885714,7.36728571 3.25414286,7.4995 3.54635714,7.74285714 C2.50192857,8.33585714 1.67978571,9.04921429 1.09778571,9.86707143 L1.09778571,9.86707143 Z M4.86,11.3146429 C4.86,10.33 5.66107143,9.52892857 6.64571429,9.52892857 C7.63035714,9.52892857 8.43142857,10.33 8.43142857,11.3146429 C8.43142857,12.2992857 7.63035714,13.1003571 6.64571429,13.1003571 C5.66107143,13.1003571 4.86,12.2992857 4.86,11.3146429 L4.86,11.3146429 Z M13.6542143,15.3899286 C12.9581429,16.1497143 11.5545,16.6216429 9.991,16.6216429 C8.42757143,16.6216429 7.02392857,16.1497143 6.32785714,15.3899286 C6.19892857,15.2492143 6.13264286,15.0667143 6.14092857,14.8762143 C6.14921429,14.6855714 6.23135714,14.5095714 6.372,14.3807143 C6.50407143,14.2597143 6.67535714,14.1930714 6.85442857,14.1930714 C7.05421429,14.1930714 7.24614286,14.2775714 7.38107143,14.4247857 C7.79557143,14.8771429 8.86871429,15.1930714 9.991,15.1930714 C11.1132857,15.1930714 12.1865,14.8771429 12.6009286,14.4247857 C12.7358571,14.2775 12.9277857,14.1930714 13.1276429,14.1930714 C13.3067857,14.1930714 13.4780714,14.2597143 13.6101429,14.3807143 C13.7508571,14.5095714 13.8328571,14.6855714 13.8411429,14.8762143 C13.8495,15.0667143 13.7831429,15.2492143 13.6542143,15.3899286 L13.6542143,15.3899286 Z M13.3362857,13.1003571 C12.3516429,13.1003571 11.5505714,12.2992857 11.5505714,11.3146429 C11.5505714,10.33 12.3516429,9.52892857 13.3362857,9.52892857 C14.3209286,9.52892857 15.122,10.33 15.122,11.3146429 C15.122,12.2992857 14.3209286,13.1003571 13.3362857,13.1003571 L13.3362857,13.1003571 Z M18.8842143,9.86707143 C18.3022857,9.04921429 17.4801429,8.33592857 16.4356429,7.74285714 C16.7279286,7.49942857 17.0931429,7.36728571 17.482,7.36728571 C18.3879286,7.36728571 19.1248571,8.10428571 19.1248571,9.01014286 C19.1248571,9.31792857 19.0422143,9.61064286 18.8842143,9.86707143 L18.8842143,9.86707143 Z" id="Shape"></path>
                </g>
            </g>
        </g>
    </g>
</svg>