<?xml version="1.0" encoding="UTF-8" standalone="no"?>
<svg width="68px" height="62px" viewBox="0 0 68 62" version="1.1" xmlns="http://www.w3.org/2000/svg" xmlns:xlink="http://www.w3.org/1999/xlink">
    <!-- Generator: Sketch 39 (31667) - http://www.bohemiancoding.com/sketch -->
    <title>noun_130265_cc</title>
    <desc>Created with Sketch.</desc>
    <defs></defs>
    <g id="Icons" stroke="none" stroke-width="1" fill="none" fill-rule="evenodd">
        <g id="Artboard-1" transform="translate(-383.000000, -950.000000)" fill="#FFFFFF">
            <g id="noun_130265_cc" transform="translate(383.000000, 950.000000)">
                <g id="Group">
                    <path d="M22.973,61.176 C21.619,61.176 20.325,60.575 19.421,59.528 L1.667,38.673 C0.289,37.03 0.184,34.682 1.401,32.949 C2.245,31.715 3.691,30.965 5.255,30.965 C5.791,30.965 6.317,31.056 6.821,31.234 L21.996,36.854 L59.6,2.044 C60.464,1.254 61.589,0.824 62.781,0.824 C63.973,0.824 65.098,1.255 65.952,2.038 C67.726,3.673 67.947,6.45 66.458,8.361 L26.681,59.371 C25.919,60.359 24.748,61.014 23.472,61.152 C23.433,61.156 23.396,61.159 23.355,61.161 L23.045,61.173 C23.022,61.176 22.997,61.176 22.973,61.176 L22.973,61.176 Z M5.255,34.518 C4.878,34.518 4.51,34.696 4.322,34.975 C4.008,35.418 4.039,35.976 4.379,36.381 L22.117,57.217 C22.331,57.465 22.636,57.615 22.944,57.622 L23.131,57.615 C23.427,57.57 23.701,57.418 23.869,57.195 L63.656,6.176 C64.013,5.719 63.965,5.036 63.546,4.651 C63.159,4.297 62.398,4.296 62.002,4.658 L23.607,40.199 C23.116,40.653 22.413,40.793 21.783,40.56 L5.609,34.574 C5.516,34.539 5.387,34.518 5.255,34.518 L5.255,34.518 Z" id="Shape"></path>
                </g>
            </g>
        </g>
    </g>
</svg>