<?xml version="1.0" encoding="UTF-8" standalone="no"?>
<svg width="106px" height="64px" viewBox="0 0 106 64" version="1.1" xmlns="http://www.w3.org/2000/svg" xmlns:xlink="http://www.w3.org/1999/xlink">
    <!-- Generator: Sketch 39 (31667) - http://www.bohemiancoding.com/sketch -->
    <title>Group 2</title>
    <desc>Created with Sketch.</desc>
    <defs></defs>
    <g id="Page-1" stroke="none" stroke-width="1" fill="none" fill-rule="evenodd">
        <g id="Group-2" fill="#5A6870">
            <g id="Group-3">
                <path d="M24.4016065,33.945098 L24.4643516,33.254902 L4.26043002,34.3215686 L4.26043002,34.8235294 L4.26043002,34.9490196 C4.44866532,38.2117647 2.88003787,40.9098039 1.9388614,42.5411765 C1.7506261,42.854902 1.56239081,43.1686275 1.49964571,43.3568627 C0.370233946,45.5529412 0.370233946,48.2509804 1.31141042,50.9490196 C3.00552806,55.7176471 7.77415551,59.9215686 14.6133712,62.9333333 L15.9310183,63.4980392 L16.6212143,63.0588235 L17.1859202,62.745098 C23.6486653,59.0431373 27.8525869,54.2745098 29.0447437,49.4431373 C29.7976849,46.8705882 29.4839594,44.172549 28.0408222,42.1019608 C27.9780771,41.8509804 27.7898418,41.5372549 27.5388614,41.2862745 C26.4721947,39.7176471 24.5898418,37.2078431 24.4016065,33.945098 Z" id="Shape-Copy-6"></path>
                <path d="M2.39184314,31.4980392 C2.70556863,31.8117647 3.01929412,32 3.33301961,32.2509804 L3.4585098,32.3764706 L25.356549,31.2470588 L25.4820392,31.1215686 C25.7957647,30.8078431 26.0467451,30.4941176 26.3604706,30.2431373 C26.8624314,29.8039216 27.238902,29.3647059 27.4898824,28.9882353 C28.6192941,27.2941176 28.0545882,26.0392157 28.0545882,26.0392157 L27.929098,25.7254902 L0.133019608,27.1686275 L0.0702745098,27.4823529 C0.0702745098,27.6078431 -0.368941176,28.9254902 0.948705882,30.3686275 C1.45066667,30.8705882 1.82713725,31.1215686 2.39184314,31.4980392 L2.39184314,31.4980392 Z" id="Shape-Copy-5"></path>
                <path d="M31.4352941,0.250980392 C31.3098039,0.062745098 31.1215686,0 30.9333333,0 L30.8705882,0 L28.0470588,0.439215686 C27.8588235,0.439215686 27.6705882,0.564705882 27.6078431,0.752941176 L20.6431373,14.6196078 C20.6431373,14.6823529 20.5803922,14.745098 20.5803922,14.8078431 L19.4509804,23.654902 C19.4509804,23.8431373 19.5137255,24.0313725 19.5764706,24.1568627 C19.7019608,24.2823529 19.8901961,24.345098 20.0156863,24.345098 L22.2745098,24.2196078 C22.5882353,24.2196078 22.7764706,23.9686275 22.8392157,23.7176471 L23.8431373,15.6862745 L31.4352941,0.878431373 C31.5607843,0.690196078 31.5607843,0.439215686 31.4352941,0.250980392 L31.4352941,0.250980392 Z" id="Shape-Copy-4"></path>
            </g>
            <text id="mate-copy-2" font-family="BigJohn, Big John" font-size="21" font-weight="normal">
                <tspan x="41.45" y="47">mate</tspan>
            </text>
            <text id="STUDIO-Copy-2" font-family="PierSans, Pier Sans" font-size="9" font-weight="normal" letter-spacing="5.67999983">
                <tspan x="42" y="59">STUDI</tspan>
                <tspan x="98.1829991" y="59">O</tspan>
            </text>
        </g>
    </g>
</svg>