<?xml version="1.0" encoding="UTF-8" standalone="no"?>
<svg width="36px" height="40px" viewBox="0 0 36 40" version="1.1" xmlns="http://www.w3.org/2000/svg" xmlns:xlink="http://www.w3.org/1999/xlink">
    <!-- Generator: Sketch 39 (31667) - http://www.bohemiancoding.com/sketch -->
    <title>tw</title>
    <desc>Created with Sketch.</desc>
    <defs></defs>
    <g id="Page-1" stroke="none" stroke-width="1" fill="none" fill-rule="evenodd">
        <g id="tw" transform="translate(-2.000000, 0.000000)">
            <polygon id="Polygon" fill="#FFFFFF" points="20 0 37.3205081 10 37.3205081 30 20 40 2.67949192 30 2.67949192 10"></polygon>
            <path d="M29.1185041,13.9224987 C29.3531914,13.4396865 29.3778789,13.0853118 29.3806914,13.0153118 C29.3894414,12.762812 29.249129,12.5290621 29.0216291,12.4187497 C28.7947543,12.3099998 28.523817,12.3431248 28.3316296,12.5065622 C27.9116299,12.8643744 27.083818,13.0771868 26.5788183,13.1706242 C25.7103814,12.3937497 24.7385071,12 23.6856953,12 C22.0303839,12 20.7963223,13.0034368 20.7000724,13.0868743 C19.3035108,14.4831233 19.098511,15.8018724 19.1747609,16.6653093 C14.5747641,16.0237472 12.581953,13.0640618 12.495703,12.9331244 C12.3744531,12.7468745 12.1585157,12.6446871 11.9425784,12.6421871 C11.7200785,12.6490621 11.5169537,12.7712495 11.4072663,12.9646868 C10.4366419,14.6762482 10.6847668,16.2112471 11.2844538,17.3453088 C11.2228914,17.3537463 11.1610164,17.3728088 11.1028915,17.4003088 C10.9003916,17.4968712 10.7638292,17.6928086 10.7428917,17.9159334 C10.5944543,19.5034323 11.3613288,20.6778065 12.2860157,21.462181 C12.2778907,21.4693685 12.2700782,21.4768685 12.2622657,21.484056 C12.1041408,21.6340559 12.0341408,21.8546807 12.0760158,22.0687431 C12.3875781,23.650617 13.6194522,24.4637414 14.6607015,24.8753036 C12.6741404,25.796553 10.7257042,25.5574907 10.7225792,25.5581157 C10.4188294,25.5196782 10.1316421,25.6959281 10.0338297,25.9840529 C9.93601727,26.2721777 10.0560172,26.5896775 10.3200795,26.7409274 C12.3722656,27.9171765 14.4994516,28.5128011 16.6428877,28.5128011 C20.6297599,28.5128011 23.2660081,26.46374 23.389133,26.3662401 C28.0000673,22.5184303 28.1841297,18.1253083 28.1222548,16.7999967 C28.8228793,16.2231221 29.6778787,15.1424978 29.8656911,14.9015605 C30.0466284,14.6690607 30.0444409,14.3431234 29.8610036,14.113436 C29.6835037,13.8899987 29.3794414,13.8159363 29.1185041,13.9224987 L29.1185041,13.9224987 Z" id="Shape" fill="#02131C"></path>
        </g>
    </g>
</svg>